<svg id="visual" viewBox="0 0 900 600" width="900" height="600" xmlns="http://www.w3.org/2000/svg" xmlns:xlink="http://www.w3.org/1999/xlink" version="1.1"><rect x="0" y="0" width="900" height="600" fill="#002233"></rect><path d="M0 349L6.3 323.2C12.7 297.3 25.3 245.7 37.8 245.5C50.3 245.3 62.7 296.7 75.2 316.2C87.7 335.7 100.3 323.3 112.8 315C125.3 306.7 137.7 302.3 150.2 285.8C162.7 269.3 175.3 240.7 187.8 228.5C200.3 216.3 212.7 220.7 225.2 239.5C237.7 258.3 250.3 291.7 262.8 286.7C275.3 281.7 287.7 238.3 300.2 218.7C312.7 199 325.3 203 337.8 196.3C350.3 189.7 362.7 172.3 375.2 163.2C387.7 154 400.3 153 412.8 178.8C425.3 204.7 437.7 257.3 450 273.3C462.3 289.3 474.7 268.7 487.2 268.8C499.7 269 512.3 290 525 273.7C537.7 257.3 550.3 203.7 562.8 205.3C575.3 207 587.7 264 600.2 266C612.7 268 625.3 215 637.8 208.5C650.3 202 662.7 242 675.2 240.7C687.7 239.3 700.3 196.7 712.8 200.8C725.3 205 737.7 256 750.2 259.7C762.7 263.3 775.3 219.7 787.8 224.8C800.3 230 812.7 284 825.2 302.2C837.7 320.3 850.3 302.7 862.8 298.5C875.3 294.3 887.7 303.7 893.8 308.3L900 313" fill="none" stroke-linecap="round" stroke-linejoin="miter" stroke="#00b94c" stroke-width="30"></path></svg>