<svg id="visual" viewBox="0 0 900 600" width="900" height="600" xmlns="http://www.w3.org/2000/svg" xmlns:xlink="http://www.w3.org/1999/xlink" version="1.1"><rect x="0" y="0" width="900" height="600" fill="#002233"></rect><path d="M0 267L12.5 254.5C25 242 50 217 75 189.8C100 162.7 125 133.3 150 148.3C175 163.3 200 222.7 225 251.3C250 280 275 278 300 275.2C325 272.3 350 268.7 375 242.8C400 217 425 169 450 165.2C475 161.3 500 201.7 525 199.2C550 196.7 575 151.3 600 130.5C625 109.7 650 113.3 675 135.3C700 157.3 725 197.7 750 209.5C775 221.3 800 204.7 825 185.7C850 166.7 875 145.3 887.5 134.7L900 124" fill="none" stroke-linecap="round" stroke-linejoin="miter" stroke="#00b94c" stroke-width="99"></path></svg>