<svg id="visual" viewBox="0 0 900 600" width="900" height="600" xmlns="http://www.w3.org/2000/svg" xmlns:xlink="http://www.w3.org/1999/xlink" version="1.1"><rect x="0" y="0" width="900" height="600" fill="#002233"></rect><path d="M0 321L10.7 320.8C21.3 320.7 42.7 320.3 64.2 323.8C85.7 327.3 107.3 334.7 128.8 333.8C150.3 333 171.7 324 193 339.2C214.3 354.3 235.7 393.7 257 403C278.3 412.3 299.7 391.7 321.2 390.8C342.7 390 364.3 409 385.8 403.3C407.3 397.7 428.7 367.3 450 357.2C471.3 347 492.7 357 514.2 367.7C535.7 378.3 557.3 389.7 578.8 399.8C600.3 410 621.7 419 643 415.2C664.3 411.3 685.7 394.7 707 385.5C728.3 376.3 749.7 374.7 771.2 385C792.7 395.3 814.3 417.7 835.8 434.2C857.3 450.7 878.7 461.3 889.3 466.7L900 472" fill="none" stroke-linecap="round" stroke-linejoin="miter" stroke="#00b94c" stroke-width="40"></path></svg>