<svg id="visual" viewBox="0 0 960 540" width="960" height="540" xmlns="http://www.w3.org/2000/svg" xmlns:xlink="http://www.w3.org/1999/xlink" version="1.1"><rect x="0" y="0" width="960" height="540" fill="#ffffff"></rect><defs><linearGradient id="grad1_0" x1="43.8%" y1="100%" x2="100%" y2="0%"><stop offset="14.444444444444446%" stop-color="#00ae38" stop-opacity="1"></stop><stop offset="85.55555555555554%" stop-color="#00ae38" stop-opacity="1"></stop></linearGradient></defs><defs><linearGradient id="grad1_1" x1="43.8%" y1="100%" x2="100%" y2="0%"><stop offset="14.444444444444446%" stop-color="#00ae38" stop-opacity="1"></stop><stop offset="85.55555555555554%" stop-color="#79ca7b" stop-opacity="1"></stop></linearGradient></defs><defs><linearGradient id="grad1_2" x1="43.8%" y1="100%" x2="100%" y2="0%"><stop offset="14.444444444444446%" stop-color="#bee5bc" stop-opacity="1"></stop><stop offset="85.55555555555554%" stop-color="#79ca7b" stop-opacity="1"></stop></linearGradient></defs><defs><linearGradient id="grad1_3" x1="43.8%" y1="100%" x2="100%" y2="0%"><stop offset="14.444444444444446%" stop-color="#bee5bc" stop-opacity="1"></stop><stop offset="85.55555555555554%" stop-color="#ffffff" stop-opacity="1"></stop></linearGradient></defs><defs><linearGradient id="grad2_0" x1="0%" y1="100%" x2="56.3%" y2="0%"><stop offset="14.444444444444446%" stop-color="#00ae38" stop-opacity="1"></stop><stop offset="85.55555555555554%" stop-color="#00ae38" stop-opacity="1"></stop></linearGradient></defs><defs><linearGradient id="grad2_1" x1="0%" y1="100%" x2="56.3%" y2="0%"><stop offset="14.444444444444446%" stop-color="#79ca7b" stop-opacity="1"></stop><stop offset="85.55555555555554%" stop-color="#00ae38" stop-opacity="1"></stop></linearGradient></defs><defs><linearGradient id="grad2_2" x1="0%" y1="100%" x2="56.3%" y2="0%"><stop offset="14.444444444444446%" stop-color="#79ca7b" stop-opacity="1"></stop><stop offset="85.55555555555554%" stop-color="#bee5bc" stop-opacity="1"></stop></linearGradient></defs><defs><linearGradient id="grad2_3" x1="0%" y1="100%" x2="56.3%" y2="0%"><stop offset="14.444444444444446%" stop-color="#ffffff" stop-opacity="1"></stop><stop offset="85.55555555555554%" stop-color="#bee5bc" stop-opacity="1"></stop></linearGradient></defs><g transform="translate(960, 540)"><path d="M-486 0C-473.2 -46.3 -460.4 -92.5 -450.8 -146.5C-441.2 -200.4 -434.8 -262.1 -393.2 -285.7C-351.5 -309.2 -274.6 -294.7 -229.8 -316.3C-185.1 -337.9 -172.6 -395.6 -139.7 -429.9C-106.7 -464.2 -53.4 -475.1 0 -486L0 0Z" fill="#dff2dd"></path><path d="M-364.5 0C-354.9 -34.7 -345.3 -69.4 -338.1 -109.9C-330.9 -150.3 -326.1 -196.6 -294.9 -214.2C-263.6 -231.9 -205.9 -221.1 -172.4 -237.2C-138.8 -253.4 -129.5 -296.7 -104.8 -322.4C-80.1 -348.1 -40 -356.3 0 -364.5L0 0Z" fill="#9cd89b"></path><path d="M-243 0C-236.6 -23.1 -230.2 -46.3 -225.4 -73.2C-220.6 -100.2 -217.4 -131 -196.6 -142.8C-175.8 -154.6 -137.3 -147.4 -114.9 -158.2C-92.5 -169 -86.3 -197.8 -69.8 -214.9C-53.4 -232.1 -26.7 -237.5 0 -243L0 0Z" fill="#50bc5a"></path><path d="M-121.5 0C-118.3 -11.6 -115.1 -23.1 -112.7 -36.6C-110.3 -50.1 -108.7 -65.5 -98.3 -71.4C-87.9 -77.3 -68.6 -73.7 -57.5 -79.1C-46.3 -84.5 -43.2 -98.9 -34.9 -107.5C-26.7 -116 -13.3 -118.8 0 -121.5L0 0Z" fill="#00ae38"></path></g><g transform="translate(0, 0)"><path d="M486 0C453.5 44.6 421 89.3 398.5 129.5C376 169.7 363.6 205.5 350.3 254.5C337 303.5 322.7 365.7 285.7 393.2C248.7 420.7 188.9 413.5 137.5 423.2C86.1 432.9 43.1 459.5 0 486L0 0Z" fill="#dff2dd"></path><path d="M364.5 0C340.1 33.5 315.7 66.9 298.9 97.1C282 127.3 272.7 154.1 262.7 190.9C252.7 227.6 242 274.3 214.2 294.9C186.5 315.5 141.7 310.1 103.1 317.4C64.6 324.7 32.3 344.6 0 364.5L0 0Z" fill="#9cd89b"></path><path d="M243 0C226.7 22.3 210.5 44.6 199.2 64.7C188 84.9 181.8 102.8 175.2 127.3C168.5 151.8 161.3 182.8 142.8 196.6C124.3 210.3 94.5 206.8 68.8 211.6C43.1 216.5 21.5 229.7 0 243L0 0Z" fill="#50bc5a"></path><path d="M121.5 0C113.4 11.2 105.2 22.3 99.6 32.4C94 42.4 90.9 51.4 87.6 63.6C84.2 75.9 80.7 91.4 71.4 98.3C62.2 105.2 47.2 103.4 34.4 105.8C21.5 108.2 10.8 114.9 0 121.5L0 0Z" fill="#00ae38"></path></g></svg>