<svg id="visual" viewBox="0 0 960 540" width="960" height="540" xmlns="http://www.w3.org/2000/svg" xmlns:xlink="http://www.w3.org/1999/xlink" version="1.1"><rect x="0" y="0" width="960" height="540" fill="#ffffff"></rect><defs><linearGradient id="grad1_0" x1="43.8%" y1="0%" x2="100%" y2="100%"><stop offset="14.444444444444446%" stop-color="#00ae38" stop-opacity="1"></stop><stop offset="85.55555555555554%" stop-color="#00ae38" stop-opacity="1"></stop></linearGradient></defs><defs><linearGradient id="grad1_1" x1="43.8%" y1="0%" x2="100%" y2="100%"><stop offset="14.444444444444446%" stop-color="#00ae38" stop-opacity="1"></stop><stop offset="85.55555555555554%" stop-color="#79ca7b" stop-opacity="1"></stop></linearGradient></defs><defs><linearGradient id="grad1_2" x1="43.8%" y1="0%" x2="100%" y2="100%"><stop offset="14.444444444444446%" stop-color="#bee5bc" stop-opacity="1"></stop><stop offset="85.55555555555554%" stop-color="#79ca7b" stop-opacity="1"></stop></linearGradient></defs><defs><linearGradient id="grad1_3" x1="43.8%" y1="0%" x2="100%" y2="100%"><stop offset="14.444444444444446%" stop-color="#bee5bc" stop-opacity="1"></stop><stop offset="85.55555555555554%" stop-color="#ffffff" stop-opacity="1"></stop></linearGradient></defs><defs><linearGradient id="grad2_0" x1="0%" y1="0%" x2="56.3%" y2="100%"><stop offset="14.444444444444446%" stop-color="#00ae38" stop-opacity="1"></stop><stop offset="85.55555555555554%" stop-color="#00ae38" stop-opacity="1"></stop></linearGradient></defs><defs><linearGradient id="grad2_1" x1="0%" y1="0%" x2="56.3%" y2="100%"><stop offset="14.444444444444446%" stop-color="#79ca7b" stop-opacity="1"></stop><stop offset="85.55555555555554%" stop-color="#00ae38" stop-opacity="1"></stop></linearGradient></defs><defs><linearGradient id="grad2_2" x1="0%" y1="0%" x2="56.3%" y2="100%"><stop offset="14.444444444444446%" stop-color="#79ca7b" stop-opacity="1"></stop><stop offset="85.55555555555554%" stop-color="#bee5bc" stop-opacity="1"></stop></linearGradient></defs><defs><linearGradient id="grad2_3" x1="0%" y1="0%" x2="56.3%" y2="100%"><stop offset="14.444444444444446%" stop-color="#ffffff" stop-opacity="1"></stop><stop offset="85.55555555555554%" stop-color="#bee5bc" stop-opacity="1"></stop></linearGradient></defs><g transform="translate(960, 0)"><path d="M0 486C-55.6 487.6 -111.2 489.3 -150.2 462.2C-189.1 435.2 -211.4 379.5 -253.9 349.5C-296.5 319.5 -359.3 315.3 -389.9 283.3C-420.6 251.3 -419.2 191.5 -429.9 139.7C-440.5 87.8 -463.3 43.9 -486 0L0 0Z" fill="#dff2dd"></path><path d="M0 364.5C-41.7 365.7 -83.4 366.9 -112.6 346.7C-141.8 326.4 -158.5 284.6 -190.4 262.1C-222.3 239.6 -269.4 236.5 -292.5 212.5C-315.5 188.5 -314.4 143.6 -322.4 104.8C-330.4 65.9 -347.5 32.9 -364.5 0L0 0Z" fill="#9cd89b"></path><path d="M0 243C-27.8 243.8 -55.6 244.6 -75.1 231.1C-94.6 217.6 -105.7 189.7 -127 174.7C-148.2 159.8 -179.6 157.7 -195 141.7C-210.3 125.7 -209.6 95.8 -214.9 69.8C-220.3 43.9 -231.6 22 -243 0L0 0Z" fill="#50bc5a"></path><path d="M0 121.5C-13.9 121.9 -27.8 122.3 -37.5 115.6C-47.3 108.8 -52.8 94.9 -63.5 87.4C-74.1 79.9 -89.8 78.8 -97.5 70.8C-105.2 62.8 -104.8 47.9 -107.5 34.9C-110.1 22 -115.8 11 -121.5 0L0 0Z" fill="#00ae38"></path></g><g transform="translate(0, 540)"><path d="M0 -486C41.6 -457.6 83.2 -429.2 136.9 -421.3C190.6 -413.5 256.4 -426.2 285.7 -393.2C314.9 -360.2 307.5 -281.4 318.8 -231.6C330 -181.7 359.9 -160.8 390.9 -127C421.9 -93.2 453.9 -46.6 486 0L0 0Z" fill="#dff2dd"></path><path d="M0 -364.5C31.2 -343.2 62.4 -321.9 102.7 -316C143 -310.1 192.3 -319.6 214.2 -294.9C236.2 -270.1 230.6 -211.1 239.1 -173.7C247.5 -136.3 269.9 -120.6 293.2 -95.3C316.4 -69.9 340.4 -35 364.5 0L0 0Z" fill="#9cd89b"></path><path d="M0 -243C20.8 -228.8 41.6 -214.6 68.4 -210.7C95.3 -206.7 128.2 -213.1 142.8 -196.6C157.4 -180.1 153.7 -140.7 159.4 -115.8C165 -90.9 180 -80.4 195.4 -63.5C210.9 -46.6 227 -23.3 243 0L0 0Z" fill="#50bc5a"></path><path d="M0 -121.5C10.4 -114.4 20.8 -107.3 34.2 -105.3C47.7 -103.4 64.1 -106.5 71.4 -98.3C78.7 -90 76.9 -70.4 79.7 -57.9C82.5 -45.4 90 -40.2 97.7 -31.8C105.5 -23.3 113.5 -11.7 121.5 0L0 0Z" fill="#00ae38"></path></g></svg>