<svg id="visual" viewBox="0 0 960 540" width="960" height="540" xmlns="http://www.w3.org/2000/svg" xmlns:xlink="http://www.w3.org/1999/xlink" version="1.1"><rect x="0" y="0" width="960" height="540" fill="#ffffff"></rect><defs><linearGradient id="grad1_0" x1="43.8%" y1="100%" x2="100%" y2="0%"><stop offset="14.444444444444446%" stop-color="#00ae38" stop-opacity="1"></stop><stop offset="85.55555555555554%" stop-color="#00ae38" stop-opacity="1"></stop></linearGradient></defs><defs><linearGradient id="grad1_1" x1="43.8%" y1="100%" x2="100%" y2="0%"><stop offset="14.444444444444446%" stop-color="#00ae38" stop-opacity="1"></stop><stop offset="85.55555555555554%" stop-color="#79ca7b" stop-opacity="1"></stop></linearGradient></defs><defs><linearGradient id="grad1_2" x1="43.8%" y1="100%" x2="100%" y2="0%"><stop offset="14.444444444444446%" stop-color="#bee5bc" stop-opacity="1"></stop><stop offset="85.55555555555554%" stop-color="#79ca7b" stop-opacity="1"></stop></linearGradient></defs><defs><linearGradient id="grad1_3" x1="43.8%" y1="100%" x2="100%" y2="0%"><stop offset="14.444444444444446%" stop-color="#bee5bc" stop-opacity="1"></stop><stop offset="85.55555555555554%" stop-color="#ffffff" stop-opacity="1"></stop></linearGradient></defs><defs><linearGradient id="grad2_0" x1="0%" y1="100%" x2="56.3%" y2="0%"><stop offset="14.444444444444446%" stop-color="#00ae38" stop-opacity="1"></stop><stop offset="85.55555555555554%" stop-color="#00ae38" stop-opacity="1"></stop></linearGradient></defs><defs><linearGradient id="grad2_1" x1="0%" y1="100%" x2="56.3%" y2="0%"><stop offset="14.444444444444446%" stop-color="#79ca7b" stop-opacity="1"></stop><stop offset="85.55555555555554%" stop-color="#00ae38" stop-opacity="1"></stop></linearGradient></defs><defs><linearGradient id="grad2_2" x1="0%" y1="100%" x2="56.3%" y2="0%"><stop offset="14.444444444444446%" stop-color="#79ca7b" stop-opacity="1"></stop><stop offset="85.55555555555554%" stop-color="#bee5bc" stop-opacity="1"></stop></linearGradient></defs><defs><linearGradient id="grad2_3" x1="0%" y1="100%" x2="56.3%" y2="0%"><stop offset="14.444444444444446%" stop-color="#ffffff" stop-opacity="1"></stop><stop offset="85.55555555555554%" stop-color="#bee5bc" stop-opacity="1"></stop></linearGradient></defs><g transform="translate(960, 540)"><path d="M-486 0C-452 -46.2 -418.1 -92.4 -386.1 -125.5C-354.2 -158.6 -324.2 -178.6 -313.9 -228.1C-303.6 -277.5 -313 -356.5 -285.7 -393.2C-258.3 -429.9 -194.3 -424.3 -140.6 -432.7C-86.9 -441.2 -43.4 -463.6 0 -486L0 0Z" fill="#dff2dd"></path><path d="M-364.5 0C-339 -34.6 -313.6 -69.3 -289.6 -94.1C-265.6 -118.9 -243.1 -133.9 -235.4 -171C-227.7 -208.2 -234.7 -267.4 -214.2 -294.9C-193.8 -322.4 -145.7 -318.2 -105.5 -324.5C-65.2 -330.9 -32.6 -347.7 0 -364.5L0 0Z" fill="#9cd89b"></path><path d="M-243 0C-226 -23.1 -209 -46.2 -193.1 -62.7C-177.1 -79.3 -162.1 -89.3 -156.9 -114C-151.8 -138.8 -156.5 -178.2 -142.8 -196.6C-129.2 -214.9 -97.2 -212.2 -70.3 -216.4C-43.4 -220.6 -21.7 -231.8 0 -243L0 0Z" fill="#50bc5a"></path><path d="M-121.5 0C-113 -11.5 -104.5 -23.1 -96.5 -31.4C-88.5 -39.6 -81 -44.6 -78.5 -57C-75.9 -69.4 -78.2 -89.1 -71.4 -98.3C-64.6 -107.5 -48.6 -106.1 -35.2 -108.2C-21.7 -110.3 -10.9 -115.9 0 -121.5L0 0Z" fill="#00ae38"></path></g><g transform="translate(0, 0)"><path d="M486 0C470.3 50.7 454.6 101.5 428 139.1C401.3 176.6 363.8 201 343.8 249.8C323.9 298.6 321.6 371.8 285.7 393.2C249.7 414.5 180.2 384.1 127 390.9C73.8 397.7 36.9 441.9 0 486L0 0Z" fill="#dff2dd"></path><path d="M364.5 0C352.7 38.1 341 76.1 321 104.3C301 132.5 272.8 150.8 257.9 187.4C242.9 224 241.2 278.9 214.2 294.9C187.3 310.9 135.2 288 95.3 293.2C55.3 298.3 27.7 331.4 0 364.5L0 0Z" fill="#9cd89b"></path><path d="M243 0C235.2 25.4 227.3 50.7 214 69.5C200.7 88.3 181.9 100.5 171.9 124.9C161.9 149.3 160.8 185.9 142.8 196.6C124.9 207.3 90.1 192 63.5 195.4C36.9 198.9 18.4 220.9 0 243L0 0Z" fill="#50bc5a"></path><path d="M121.5 0C117.6 12.7 113.7 25.4 107 34.8C100.3 44.2 90.9 50.3 86 62.5C81 74.7 80.4 93 71.4 98.3C62.4 103.6 45.1 96 31.8 97.7C18.4 99.4 9.2 110.5 0 121.5L0 0Z" fill="#00ae38"></path></g></svg>