<svg id="visual" viewBox="0 0 960 540" width="960" height="540" xmlns="http://www.w3.org/2000/svg" xmlns:xlink="http://www.w3.org/1999/xlink" version="1.1"><rect x="0" y="0" width="960" height="540" fill="#ffffff"></rect><defs><linearGradient id="grad1_0" x1="43.8%" y1="100%" x2="100%" y2="0%"><stop offset="14.444444444444446%" stop-color="#00ae38" stop-opacity="1"></stop><stop offset="85.55555555555554%" stop-color="#00ae38" stop-opacity="1"></stop></linearGradient></defs><defs><linearGradient id="grad1_1" x1="43.8%" y1="100%" x2="100%" y2="0%"><stop offset="14.444444444444446%" stop-color="#00ae38" stop-opacity="1"></stop><stop offset="85.55555555555554%" stop-color="#79ca7b" stop-opacity="1"></stop></linearGradient></defs><defs><linearGradient id="grad1_2" x1="43.8%" y1="100%" x2="100%" y2="0%"><stop offset="14.444444444444446%" stop-color="#bee5bc" stop-opacity="1"></stop><stop offset="85.55555555555554%" stop-color="#79ca7b" stop-opacity="1"></stop></linearGradient></defs><defs><linearGradient id="grad1_3" x1="43.8%" y1="100%" x2="100%" y2="0%"><stop offset="14.444444444444446%" stop-color="#bee5bc" stop-opacity="1"></stop><stop offset="85.55555555555554%" stop-color="#ffffff" stop-opacity="1"></stop></linearGradient></defs><defs><linearGradient id="grad2_0" x1="0%" y1="100%" x2="56.3%" y2="0%"><stop offset="14.444444444444446%" stop-color="#00ae38" stop-opacity="1"></stop><stop offset="85.55555555555554%" stop-color="#00ae38" stop-opacity="1"></stop></linearGradient></defs><defs><linearGradient id="grad2_1" x1="0%" y1="100%" x2="56.3%" y2="0%"><stop offset="14.444444444444446%" stop-color="#79ca7b" stop-opacity="1"></stop><stop offset="85.55555555555554%" stop-color="#00ae38" stop-opacity="1"></stop></linearGradient></defs><defs><linearGradient id="grad2_2" x1="0%" y1="100%" x2="56.3%" y2="0%"><stop offset="14.444444444444446%" stop-color="#79ca7b" stop-opacity="1"></stop><stop offset="85.55555555555554%" stop-color="#bee5bc" stop-opacity="1"></stop></linearGradient></defs><defs><linearGradient id="grad2_3" x1="0%" y1="100%" x2="56.3%" y2="0%"><stop offset="14.444444444444446%" stop-color="#ffffff" stop-opacity="1"></stop><stop offset="85.55555555555554%" stop-color="#bee5bc" stop-opacity="1"></stop></linearGradient></defs><g transform="translate(960, 540)"><path d="M-486 0C-435.8 -36.3 -385.7 -72.6 -377.6 -122.7C-369.4 -172.8 -403.3 -236.7 -393.2 -285.7C-383 -334.6 -328.8 -368.6 -276.8 -381C-224.9 -393.5 -175.2 -384.6 -129.5 -398.5C-83.7 -412.4 -41.9 -449.2 0 -486L0 0Z" fill="#dff2dd"></path><path d="M-364.5 0C-326.9 -27.2 -289.3 -54.4 -283.2 -92C-277.1 -129.6 -302.5 -177.5 -294.9 -214.2C-287.3 -251 -246.6 -276.4 -207.6 -285.8C-168.7 -295.2 -131.4 -288.4 -97.1 -298.9C-62.8 -309.3 -31.4 -336.9 0 -364.5L0 0Z" fill="#9cd89b"></path><path d="M-243 0C-217.9 -18.1 -192.8 -36.3 -188.8 -61.3C-184.7 -86.4 -201.7 -118.4 -196.6 -142.8C-191.5 -167.3 -164.4 -184.3 -138.4 -190.5C-112.5 -196.8 -87.6 -192.3 -64.7 -199.2C-41.9 -206.2 -20.9 -224.6 0 -243L0 0Z" fill="#50bc5a"></path><path d="M-121.5 0C-109 -9.1 -96.4 -18.1 -94.4 -30.7C-92.4 -43.2 -100.8 -59.2 -98.3 -71.4C-95.8 -83.7 -82.2 -92.1 -69.2 -95.3C-56.2 -98.4 -43.8 -96.1 -32.4 -99.6C-20.9 -103.1 -10.5 -112.3 0 -121.5L0 0Z" fill="#00ae38"></path></g><g transform="translate(0, 0)"><path d="M486 0C482.5 50.8 479 101.5 462.2 150.2C445.4 198.8 415.3 245.4 373 271C330.6 296.6 276 301.3 237.5 326.8C198.9 352.4 176.3 398.9 139.4 428.9C102.5 458.9 51.2 472.5 0 486L0 0Z" fill="#dff2dd"></path><path d="M364.5 0C361.9 38.1 359.3 76.1 346.7 112.6C334.1 149.1 311.5 184 279.7 203.2C248 222.4 207 225.9 178.1 245.1C149.2 264.3 132.2 299.2 104.5 321.7C76.8 344.2 38.4 354.4 0 364.5L0 0Z" fill="#9cd89b"></path><path d="M243 0C241.3 25.4 239.5 50.8 231.1 75.1C222.7 99.4 207.6 122.7 186.5 135.5C165.3 148.3 138 150.6 118.7 163.4C99.4 176.2 88.1 199.5 69.7 214.5C51.2 229.5 25.6 236.2 0 243L0 0Z" fill="#50bc5a"></path><path d="M121.5 0C120.6 12.7 119.8 25.4 115.6 37.5C111.4 49.7 103.8 61.3 93.2 67.7C82.7 74.1 69 75.3 59.4 81.7C49.7 88.1 44.1 99.7 34.8 107.2C25.6 114.7 12.8 118.1 0 121.5L0 0Z" fill="#00ae38"></path></g></svg>