<svg id="visual" viewBox="0 0 960 540" width="960" height="540" xmlns="http://www.w3.org/2000/svg" xmlns:xlink="http://www.w3.org/1999/xlink" version="1.1"><rect x="0" y="0" width="960" height="540" fill="#000000"></rect><path d="M0 147L22.8 147.5C45.7 148 91.3 149 137 160.8C182.7 172.7 228.3 195.3 274 193.2C319.7 191 365.3 164 411.2 156.2C457 148.3 503 159.7 548.8 164.5C594.7 169.3 640.3 167.7 686 165.3C731.7 163 777.3 160 823 156.2C868.7 152.3 914.3 147.7 937.2 145.3L960 143L960 0L937.2 0C914.3 0 868.7 0 823 0C777.3 0 731.7 0 686 0C640.3 0 594.7 0 548.8 0C503 0 457 0 411.2 0C365.3 0 319.7 0 274 0C228.3 0 182.7 0 137 0C91.3 0 45.7 0 22.8 0L0 0Z" fill="#027b47"></path><path d="M0 167L22.8 163.7C45.7 160.3 91.3 153.7 137 145.3C182.7 137 228.3 127 274 132.8C319.7 138.7 365.3 160.3 411.2 169.8C457 179.3 503 176.7 548.8 174.5C594.7 172.3 640.3 170.7 686 170.7C731.7 170.7 777.3 172.3 823 173.5C868.7 174.7 914.3 175.3 937.2 175.7L960 176L960 0L937.2 0C914.3 0 868.7 0 823 0C777.3 0 731.7 0 686 0C640.3 0 594.7 0 548.8 0C503 0 457 0 411.2 0C365.3 0 319.7 0 274 0C228.3 0 182.7 0 137 0C91.3 0 45.7 0 22.8 0L0 0Z" fill="#029a5a"></path><path d="M0 107L22.8 113.2C45.7 119.3 91.3 131.7 137 130C182.7 128.3 228.3 112.7 274 106.3C319.7 100 365.3 103 411.2 110.5C457 118 503 130 548.8 128.7C594.7 127.3 640.3 112.7 686 102.7C731.7 92.7 777.3 87.3 823 89.3C868.7 91.3 914.3 100.7 937.2 105.3L960 110L960 0L937.2 0C914.3 0 868.7 0 823 0C777.3 0 731.7 0 686 0C640.3 0 594.7 0 548.8 0C503 0 457 0 411.2 0C365.3 0 319.7 0 274 0C228.3 0 182.7 0 137 0C91.3 0 45.7 0 22.8 0L0 0Z" fill="#02bb6d"></path><path d="M0 67L22.8 66.7C45.7 66.3 91.3 65.7 137 71.8C182.7 78 228.3 91 274 89.8C319.7 88.7 365.3 73.3 411.2 66.8C457 60.3 503 62.7 548.8 62.8C594.7 63 640.3 61 686 64.5C731.7 68 777.3 77 823 79C868.7 81 914.3 76 937.2 73.5L960 71L960 0L937.2 0C914.3 0 868.7 0 823 0C777.3 0 731.7 0 686 0C640.3 0 594.7 0 548.8 0C503 0 457 0 411.2 0C365.3 0 319.7 0 274 0C228.3 0 182.7 0 137 0C91.3 0 45.7 0 22.8 0L0 0Z" fill="#04dd80"></path><path d="M0 60L22.8 60C45.7 60 91.3 60 137 54.8C182.7 49.7 228.3 39.3 274 39.3C319.7 39.3 365.3 49.7 411.2 51.3C457 53 503 46 548.8 46C594.7 46 640.3 53 686 51C731.7 49 777.3 38 823 35.8C868.7 33.7 914.3 40.3 937.2 43.7L960 47L960 0L937.2 0C914.3 0 868.7 0 823 0C777.3 0 731.7 0 686 0C640.3 0 594.7 0 548.8 0C503 0 457 0 411.2 0C365.3 0 319.7 0 274 0C228.3 0 182.7 0 137 0C91.3 0 45.7 0 22.8 0L0 0Z" fill="#0bff94"></path></svg>