<svg id="visual" viewBox="0 0 960 540" width="960" height="540" xmlns="http://www.w3.org/2000/svg" xmlns:xlink="http://www.w3.org/1999/xlink" version="1.1"><rect x="0" y="0" width="960" height="540" fill="#ffffff"></rect><path d="M0 395L22.8 385.2C45.7 375.3 91.3 355.7 137 354.3C182.7 353 228.3 370 274 380.3C319.7 390.7 365.3 394.3 411.2 390.3C457 386.3 503 374.7 548.8 367.5C594.7 360.3 640.3 357.7 686 358.2C731.7 358.7 777.3 362.3 823 362.3C868.7 362.3 914.3 358.7 937.2 356.8L960 355L960 541L937.2 541C914.3 541 868.7 541 823 541C777.3 541 731.7 541 686 541C640.3 541 594.7 541 548.8 541C503 541 457 541 411.2 541C365.3 541 319.7 541 274 541C228.3 541 182.7 541 137 541C91.3 541 45.7 541 22.8 541L0 541Z" fill="#30753a"></path><path d="M0 367L22.8 375.8C45.7 384.7 91.3 402.3 137 402.2C182.7 402 228.3 384 274 373.3C319.7 362.7 365.3 359.3 411.2 365.3C457 371.3 503 386.7 548.8 398.7C594.7 410.7 640.3 419.3 686 421.3C731.7 423.3 777.3 418.7 823 414.8C868.7 411 914.3 408 937.2 406.5L960 405L960 541L937.2 541C914.3 541 868.7 541 823 541C777.3 541 731.7 541 686 541C640.3 541 594.7 541 548.8 541C503 541 457 541 411.2 541C365.3 541 319.7 541 274 541C228.3 541 182.7 541 137 541C91.3 541 45.7 541 22.8 541L0 541Z" fill="#318d3f"></path><path d="M0 393L22.8 396C45.7 399 91.3 405 137 406.2C182.7 407.3 228.3 403.7 274 403.8C319.7 404 365.3 408 411.2 410.2C457 412.3 503 412.7 548.8 418.8C594.7 425 640.3 437 686 438.3C731.7 439.7 777.3 430.3 823 425.8C868.7 421.3 914.3 421.7 937.2 421.8L960 422L960 541L937.2 541C914.3 541 868.7 541 823 541C777.3 541 731.7 541 686 541C640.3 541 594.7 541 548.8 541C503 541 457 541 411.2 541C365.3 541 319.7 541 274 541C228.3 541 182.7 541 137 541C91.3 541 45.7 541 22.8 541L0 541Z" fill="#30a644"></path><path d="M0 480L22.8 474.3C45.7 468.7 91.3 457.3 137 450.3C182.7 443.3 228.3 440.7 274 442.3C319.7 444 365.3 450 411.2 457.3C457 464.7 503 473.3 548.8 472.8C594.7 472.3 640.3 462.7 686 461.5C731.7 460.3 777.3 467.7 823 468.3C868.7 469 914.3 463 937.2 460L960 457L960 541L937.2 541C914.3 541 868.7 541 823 541C777.3 541 731.7 541 686 541C640.3 541 594.7 541 548.8 541C503 541 457 541 411.2 541C365.3 541 319.7 541 274 541C228.3 541 182.7 541 137 541C91.3 541 45.7 541 22.8 541L0 541Z" fill="#2ebf48"></path><path d="M0 515L22.8 513.3C45.7 511.7 91.3 508.3 137 504.7C182.7 501 228.3 497 274 494C319.7 491 365.3 489 411.2 492C457 495 503 503 548.8 503.7C594.7 504.3 640.3 497.7 686 497.3C731.7 497 777.3 503 823 503.5C868.7 504 914.3 499 937.2 496.5L960 494L960 541L937.2 541C914.3 541 868.7 541 823 541C777.3 541 731.7 541 686 541C640.3 541 594.7 541 548.8 541C503 541 457 541 411.2 541C365.3 541 319.7 541 274 541C228.3 541 182.7 541 137 541C91.3 541 45.7 541 22.8 541L0 541Z" fill="#29d94c"></path></svg>