<svg id="visual" viewBox="0 0 960 540" width="960" height="540" xmlns="http://www.w3.org/2000/svg" xmlns:xlink="http://www.w3.org/1999/xlink" version="1.1"><rect x="0" y="0" width="960" height="540" fill="#000000"></rect><path d="M0 391L22.8 390.5C45.7 390 91.3 389 137 377.2C182.7 365.3 228.3 342.7 274 344.8C319.7 347 365.3 374 411.2 381.8C457 389.7 503 378.3 548.8 373.5C594.7 368.7 640.3 370.3 686 372.7C731.7 375 777.3 378 823 381.8C868.7 385.7 914.3 390.3 937.2 392.7L960 395L960 541L937.2 541C914.3 541 868.7 541 823 541C777.3 541 731.7 541 686 541C640.3 541 594.7 541 548.8 541C503 541 457 541 411.2 541C365.3 541 319.7 541 274 541C228.3 541 182.7 541 137 541C91.3 541 45.7 541 22.8 541L0 541Z" fill="#027b47"></path><path d="M0 371L22.8 374.3C45.7 377.7 91.3 384.3 137 392.7C182.7 401 228.3 411 274 405.2C319.7 399.3 365.3 377.7 411.2 368.2C457 358.7 503 361.3 548.8 363.5C594.7 365.7 640.3 367.3 686 367.3C731.7 367.3 777.3 365.7 823 364.5C868.7 363.3 914.3 362.7 937.2 362.3L960 362L960 541L937.2 541C914.3 541 868.7 541 823 541C777.3 541 731.7 541 686 541C640.3 541 594.7 541 548.8 541C503 541 457 541 411.2 541C365.3 541 319.7 541 274 541C228.3 541 182.7 541 137 541C91.3 541 45.7 541 22.8 541L0 541Z" fill="#029a5a"></path><path d="M0 431L22.8 424.8C45.7 418.7 91.3 406.3 137 408C182.7 409.7 228.3 425.3 274 431.7C319.7 438 365.3 435 411.2 427.5C457 420 503 408 548.8 409.3C594.7 410.7 640.3 425.3 686 435.3C731.7 445.3 777.3 450.7 823 448.7C868.7 446.7 914.3 437.3 937.2 432.7L960 428L960 541L937.2 541C914.3 541 868.7 541 823 541C777.3 541 731.7 541 686 541C640.3 541 594.7 541 548.8 541C503 541 457 541 411.2 541C365.3 541 319.7 541 274 541C228.3 541 182.7 541 137 541C91.3 541 45.7 541 22.8 541L0 541Z" fill="#02bb6d"></path><path d="M0 471L22.8 471.3C45.7 471.7 91.3 472.3 137 466.2C182.7 460 228.3 447 274 448.2C319.7 449.3 365.3 464.7 411.2 471.2C457 477.7 503 475.3 548.8 475.2C594.7 475 640.3 477 686 473.5C731.7 470 777.3 461 823 459C868.7 457 914.3 462 937.2 464.5L960 467L960 541L937.2 541C914.3 541 868.7 541 823 541C777.3 541 731.7 541 686 541C640.3 541 594.7 541 548.8 541C503 541 457 541 411.2 541C365.3 541 319.7 541 274 541C228.3 541 182.7 541 137 541C91.3 541 45.7 541 22.8 541L0 541Z" fill="#04dd80"></path><path d="M0 478L22.8 478C45.7 478 91.3 478 137 483.2C182.7 488.3 228.3 498.7 274 498.7C319.7 498.7 365.3 488.3 411.2 486.7C457 485 503 492 548.8 492C594.7 492 640.3 485 686 487C731.7 489 777.3 500 823 502.2C868.7 504.3 914.3 497.7 937.2 494.3L960 491L960 541L937.2 541C914.3 541 868.7 541 823 541C777.3 541 731.7 541 686 541C640.3 541 594.7 541 548.8 541C503 541 457 541 411.2 541C365.3 541 319.7 541 274 541C228.3 541 182.7 541 137 541C91.3 541 45.7 541 22.8 541L0 541Z" fill="#0bff94"></path></svg>