<svg id="visual" viewBox="0 0 960 540" width="960" height="540" xmlns="http://www.w3.org/2000/svg" xmlns:xlink="http://www.w3.org/1999/xlink" version="1.1"><rect x="0" y="0" width="960" height="540" fill="#ffffff"></rect><path d="M0 143L22.8 152.8C45.7 162.7 91.3 182.3 137 183.7C182.7 185 228.3 168 274 157.7C319.7 147.3 365.3 143.7 411.2 147.7C457 151.7 503 163.3 548.8 170.5C594.7 177.7 640.3 180.3 686 179.8C731.7 179.3 777.3 175.7 823 175.7C868.7 175.7 914.3 179.3 937.2 181.2L960 183L960 0L937.2 0C914.3 0 868.7 0 823 0C777.3 0 731.7 0 686 0C640.3 0 594.7 0 548.8 0C503 0 457 0 411.2 0C365.3 0 319.7 0 274 0C228.3 0 182.7 0 137 0C91.3 0 45.7 0 22.8 0L0 0Z" fill="#30753a"></path><path d="M0 171L22.8 162.2C45.7 153.3 91.3 135.7 137 135.8C182.7 136 228.3 154 274 164.7C319.7 175.3 365.3 178.7 411.2 172.7C457 166.7 503 151.3 548.8 139.3C594.7 127.3 640.3 118.7 686 116.7C731.7 114.7 777.3 119.3 823 123.2C868.7 127 914.3 130 937.2 131.5L960 133L960 0L937.2 0C914.3 0 868.7 0 823 0C777.3 0 731.7 0 686 0C640.3 0 594.7 0 548.8 0C503 0 457 0 411.2 0C365.3 0 319.7 0 274 0C228.3 0 182.7 0 137 0C91.3 0 45.7 0 22.8 0L0 0Z" fill="#318d3f"></path><path d="M0 145L22.8 142C45.7 139 91.3 133 137 131.8C182.7 130.7 228.3 134.3 274 134.2C319.7 134 365.3 130 411.2 127.8C457 125.7 503 125.3 548.8 119.2C594.7 113 640.3 101 686 99.7C731.7 98.3 777.3 107.7 823 112.2C868.7 116.7 914.3 116.3 937.2 116.2L960 116L960 0L937.2 0C914.3 0 868.7 0 823 0C777.3 0 731.7 0 686 0C640.3 0 594.7 0 548.8 0C503 0 457 0 411.2 0C365.3 0 319.7 0 274 0C228.3 0 182.7 0 137 0C91.3 0 45.7 0 22.8 0L0 0Z" fill="#30a644"></path><path d="M0 58L22.8 63.7C45.7 69.3 91.3 80.7 137 87.7C182.7 94.7 228.3 97.3 274 95.7C319.7 94 365.3 88 411.2 80.7C457 73.3 503 64.7 548.8 65.2C594.7 65.7 640.3 75.3 686 76.5C731.7 77.7 777.3 70.3 823 69.7C868.7 69 914.3 75 937.2 78L960 81L960 0L937.2 0C914.3 0 868.7 0 823 0C777.3 0 731.7 0 686 0C640.3 0 594.7 0 548.8 0C503 0 457 0 411.2 0C365.3 0 319.7 0 274 0C228.3 0 182.7 0 137 0C91.3 0 45.7 0 22.8 0L0 0Z" fill="#2ebf48"></path><path d="M0 23L22.8 24.7C45.7 26.3 91.3 29.7 137 33.3C182.7 37 228.3 41 274 44C319.7 47 365.3 49 411.2 46C457 43 503 35 548.8 34.3C594.7 33.7 640.3 40.3 686 40.7C731.7 41 777.3 35 823 34.5C868.7 34 914.3 39 937.2 41.5L960 44L960 0L937.2 0C914.3 0 868.7 0 823 0C777.3 0 731.7 0 686 0C640.3 0 594.7 0 548.8 0C503 0 457 0 411.2 0C365.3 0 319.7 0 274 0C228.3 0 182.7 0 137 0C91.3 0 45.7 0 22.8 0L0 0Z" fill="#29d94c"></path></svg>