<?xml version="1.0" encoding="UTF-8"?>
<!DOCTYPE svg PUBLIC "-//W3C//DTD SVG 1.1//EN" "http://www.w3.org/Graphics/SVG/1.1/DTD/svg11.dtd">
<!-- Creator: CorelDRAW 2021 (64-Bit) -->
<svg xmlns="http://www.w3.org/2000/svg" xml:space="preserve" width="39.1034mm" height="46.0061mm" version="1.1" style="shape-rendering:geometricPrecision; text-rendering:geometricPrecision; image-rendering:optimizeQuality; fill-rule:evenodd; clip-rule:evenodd"
viewBox="0 0 1567.79 1844.54"
 xmlns:xlink="http://www.w3.org/1999/xlink"
 xmlns:xodm="http://www.corel.com/coreldraw/odm/2003">
 <defs>
  <style type="text/css">
   <![CDATA[
    .fil0 {fill:#339966}
    .fil1 {fill:#585858}
   ]]>
  </style>
 </defs>
 <g id="Layer_x0020_1">
  <metadata id="CorelCorpID_0Corel-Layer"/>
  <g id="_2613214119728">
   <path class="fil0" d="M637.16 611.19c8.2,-4.92 27.45,-29.75 64.54,-46.12 159.65,-70.47 314.87,76.55 272.81,229.9 -8.14,29.69 -21.33,53.61 -37.11,72.92 -29.43,36.02 -53.08,43.45 -60.87,51.13 -9.57,2.82 -19.43,8.54 -30.62,12.21 -10.45,3.42 -22.67,6.33 -34.66,8.03 -163.93,23.33 -284.53,-157.35 -192.5,-302.36 5.47,-8.61 16.28,-19.28 18.4,-25.7zm9.83 505.23l136.67 270.05c9.44,-10.76 34.43,-66.2 43,-82.93l130.1 -255.92c29.42,-57.16 57.7,-112.24 86.56,-168.93 31.79,-62.45 40.83,-140.27 18.57,-214.07 -34.86,-115.6 -148.89,-219.86 -305.66,-205.17 -52.58,4.93 -97.9,23.33 -138.79,51.16 -63.68,43.33 -114.47,125.15 -121.03,203.23 -7.41,35.47 1.15,90.61 11.39,122.69 11.39,35.72 90.64,185.29 115.14,233.55 6.76,13.3 16.23,34.74 24.07,46.32z"/>
   <g>
    <path class="fil1" d="M6.41 327.79c-23.15,179.03 20.09,432.97 70.84,594.13 63.9,202.87 142.32,300.8 233.47,440l125.3 -116.22c-57.61,-115.63 -95.12,-108.07 -179.27,-327.37 -51.73,-134.85 -74.53,-282.75 -81.63,-439.38 296.6,-50.89 385.96,-114.64 610.31,-246.64 214.52,126.23 325.15,202.01 611.04,246.15 -2.06,112.27 -9.51,236.57 -27.72,345.18 -14.29,85.32 -32.8,87.11 19.07,140.83 33.3,34.46 64.82,68.2 101.43,89.01 76.9,-142.14 83.01,-524.73 76.66,-725.83 -240.97,-27.43 -429.32,-74.5 -626.44,-200.33 -60.73,-38.77 -103.11,-89.75 -154.05,-127.32 -119.82,88.36 -120.24,133.35 -330.95,220.83 -153.09,63.54 -275.72,85.43 -448.06,106.97z"/>
    <path class="fil0" d="M789.02 1600.27l-188.48 -179.36c-50.52,35.94 -91,72.95 -115.82,119.34l297.29 304.29 578.07 -571.09 -115.84 -121.72 -455.22 448.54z"/>
   </g>
  </g>
 </g>
</svg>
