<svg id="visual" viewBox="0 0 900 600" width="900" height="600" xmlns="http://www.w3.org/2000/svg" xmlns:xlink="http://www.w3.org/1999/xlink" version="1.1"><rect x="0" y="0" width="900" height="600" fill="#002233"></rect><path d="M0 182L10.7 222C21.3 262 42.7 342 64.2 359.3C85.7 376.7 107.3 331.3 128.8 320.7C150.3 310 171.7 334 193 355.3C214.3 376.7 235.7 395.3 257 407.7C278.3 420 299.7 426 321.2 419.8C342.7 413.7 364.3 395.3 385.8 397.3C407.3 399.3 428.7 421.7 450 432.2C471.3 442.7 492.7 441.3 514.2 424.8C535.7 408.3 557.3 376.7 578.8 376C600.3 375.3 621.7 405.7 643 402.5C664.3 399.3 685.7 362.7 707 316C728.3 269.3 749.7 212.7 771.2 217.5C792.7 222.3 814.3 288.7 835.8 307.7C857.3 326.7 878.7 298.3 889.3 284.2L900 270" fill="none" stroke-linecap="round" stroke-linejoin="miter" stroke="#00b94c" stroke-width="40"></path></svg>