<svg id="visual" viewBox="0 0 900 600" width="900" height="600" xmlns="http://www.w3.org/2000/svg" xmlns:xlink="http://www.w3.org/1999/xlink" version="1.1"><rect x="0" y="0" width="900" height="600" fill="#002233"></rect><path d="M0 174L6.3 161C12.7 148 25.3 122 37.8 122C50.3 122 62.7 148 75.2 157.8C87.7 167.7 100.3 161.3 112.8 157.2C125.3 153 137.7 151 150.2 142.7C162.7 134.3 175.3 119.7 187.8 113.5C200.3 107.3 212.7 109.7 225.2 119.2C237.7 128.7 250.3 145.3 262.8 142.8C275.3 140.3 287.7 118.7 300.2 108.8C312.7 99 325.3 101 337.8 97.7C350.3 94.3 362.7 85.7 375.2 81.2C387.7 76.7 400.3 76.3 412.8 89.2C425.3 102 437.7 128 450 136C462.3 144 474.7 134 487.2 134.2C499.7 134.3 512.3 144.7 525 136.5C537.7 128.3 550.3 101.7 562.8 102.5C575.3 103.3 587.7 131.7 600.2 132.5C612.7 133.3 625.3 106.7 637.8 103.3C650.3 100 662.7 120 675.2 119.3C687.7 118.7 700.3 97.3 712.8 99.5C725.3 101.7 737.7 127.3 750.2 129.3C762.7 131.3 775.3 109.7 787.8 112.2C800.3 114.7 812.7 141.3 825.2 150.3C837.7 159.3 850.3 150.7 862.8 148.7C875.3 146.7 887.7 151.3 893.8 153.7L900 156" fill="none" stroke-linecap="round" stroke-linejoin="miter" stroke="#00b94c" stroke-width="30"></path></svg>