<svg id="visual" viewBox="0 0 900 600" width="900" height="600" xmlns="http://www.w3.org/2000/svg" xmlns:xlink="http://www.w3.org/1999/xlink" version="1.1"><rect x="0" y="0" width="900" height="600" fill="#002233"></rect><path d="M0 544L11.5 545.2C23 546.3 46 548.7 69 554.5C92 560.3 115 569.7 138.2 571C161.3 572.3 184.7 565.7 207.8 560.7C231 555.7 254 552.3 277 547C300 541.7 323 534.3 346 526.5C369 518.7 392 510.3 415.2 513.7C438.3 517 461.7 532 484.8 534.5C508 537 531 527 554 517.5C577 508 600 499 623 503.8C646 508.7 669 527.3 692.2 536.3C715.3 545.3 738.7 544.7 761.8 543.2C785 541.7 808 539.3 831 544.8C854 550.3 877 563.7 888.5 570.3L900 577" fill="none" stroke-linecap="round" stroke-linejoin="miter" stroke="#00b94c" stroke-width="40"></path></svg>